<svg xmlns="http://www.w3.org/2000/svg" viewBox="0 0 32 32">
  <defs>
    <linearGradient id="g" x1="0%" y1="0%" x2="100%" y2="100%">
      <stop offset="0%" stop-color="#6366f1"/>
      <stop offset="100%" stop-color="#4f46e5"/>
    </linearGradient>
  </defs>
  <rect width="32" height="32" rx="8" fill="url(#g)"/>
  <path d="M16 7a9 9 0 0 1 0 18 9 9 0 0 1 0-18zm0 3a6 6 0 0 0 0 12 6 6 0 0 0 0-12zm0 3a3 3 0 1 1 0 6 3 3 0 0 1 0-6z" fill="white" opacity="0.95"/>
  <circle cx="16" cy="16" r="1.2" fill="white"/>
  <line x1="16" y1="16" x2="22" y2="10" stroke="white" stroke-width="1.5" stroke-linecap="round" opacity="0.7"/>
</svg>
